<svg xmlns="http://www.w3.org/2000/svg" xmlns:xlink="http://www.w3.org/1999/xlink" xmlns:lucid="lucid" width="680" height="680"><g transform="translate(-220 -140)" lucid:page-tab-id="0_0"><path d="M240 380h160v160H240z" stroke="#000" stroke-width="2" fill="#fff"/><use xlink:href="#a" transform="matrix(1,0,0,1,245,385) translate(41.12499999999999 80.025)"/><path d="M480 160h160v160H480z" stroke="#000" stroke-width="2" fill="#fff"/><use xlink:href="#b" transform="matrix(1,0,0,1,485,165) translate(48.824999999999996 80.025)"/><path d="M720 380h160v160H720z" stroke="#000" stroke-width="2" fill="#fff"/><use xlink:href="#c" transform="matrix(1,0,0,1,725,385) translate(51.6 80.025)"/><path d="M480 640h160v160H480z" stroke="#000" stroke-width="2" fill="#fff"/><use xlink:href="#d" transform="matrix(1,0,0,1,485,645) translate(65.55 80.025)"/><path d="M320.03 377.5l.1-4.43.36-5.77.58-5.6.8-5.5 1.02-5.33 1.23-5.24 1.43-5.12 1.63-5 1.83-4.94 2.03-4.84 2.24-4.76 2.45-4.68 2.66-4.6 2.88-4.53 3.1-4.45 3.3-4.37 3.56-4.3 3.8-4.2 4.04-4.13 4.3-4.03 4.54-3.93 4.8-3.8 5.1-3.7 5.35-3.56 5.63-3.4 5.9-3.26 6.17-3.06 6.43-2.86 6.7-2.65 6.93-2.4 7.17-2.18 7.38-1.9 7.58-1.6 7.75-1.3 7.62-.97" stroke="#000" stroke-width="3" fill="none"/><path d="M321.53 377.5l-.03 1.5h-3l.03-1.57z"/><path d="M474.15 240.26l-14 5.4-.5-9.27z" stroke="#000" stroke-width="3"/><path d="M642.5 240.03l6.7.14 8.08.5 7.98.85 7.83 1.15 7.66 1.47 7.48 1.75 7.28 2.02 7.05 2.3 6.82 2.53 6.55 2.76 6.3 2.97 6.04 3.16 5.75 3.32 5.5 3.5 5.2 3.62 4.96 3.75 4.7 3.87 4.4 3.97 4.18 4.08 3.9 4.17 3.68 4.25 3.44 4.34 3.2 4.42 3 4.5 2.75 4.55 2.55 4.64 2.35 4.73 2.13 4.8 1.94 4.88 1.73 5 1.53 5.06 1.33 5.18 1.13 5.3.84 4.92" stroke="#000" stroke-width="3" fill="none"/><path d="M642.57 238.53l-.06 3-1.5-.03v-3z"/><path d="M799.64 374.16l-5.7-13.88 9.26-.7z" stroke="#000" stroke-width="3"/><path d="M799.97 542.5l-.16 7.57-.55 8.96-.93 8.82-1.28 8.67-1.62 8.5-1.95 8.3-2.25 8.07-2.55 7.84-2.83 7.6-3.08 7.33-3.32 7.06-3.54 6.78-3.75 6.5-3.93 6.2-4.1 5.9-4.27 5.62-4.4 5.32-4.54 5.04-4.65 4.76-4.78 4.5-4.88 4.2-5 3.95-5.06 3.68-5.17 3.43-5.27 3.2-5.36 2.95-5.45 2.7-5.56 2.47-5.64 2.24-5.76 2-5.86 1.77-6 1.54-6.1 1.3-6.25 1.05-2.57.33" stroke="#000" stroke-width="3" fill="none"/><path d="M801.47 542.57l-3-.06.03-1.5h3z"/><path d="M645.84 719.68l13.93-5.56.6 9.25z" stroke="#000" stroke-width="3"/><path d="M477.5 719.97l-5.33-.1-6.64-.43-6.48-.68-6.32-.93-6.18-1.18-6.05-1.42-5.93-1.66-5.8-1.88-5.7-2.13-5.6-2.36-5.5-2.57-5.4-2.83-5.32-3.07-5.22-3.3-5.12-3.57-5.02-3.82-4.93-4.08-4.83-4.34-4.72-4.62-4.6-4.9-4.47-5.2-4.33-5.46-4.2-5.76-4-6.05-3.85-6.35-3.65-6.63-3.43-6.92-3.2-7.2-2.96-7.47-2.68-7.72-2.4-7.96-2.1-8.2-1.8-8.4-1.44-8.58-1.1-8.75-.17-1.86" stroke="#000" stroke-width="3" fill="none"/><path d="M479 718.5v3l-1.57-.03.06-3z"/><path d="M320.24 545.85l5.33 14.02-9.26.45z" stroke="#000" stroke-width="3"/><defs><path d="M81-9v9H4v-9l26-5 81-224h33l83 224 30 5v9h-99v-9l31-5-23-68H73L49-14zm38-203L78-98h82" id="e"/><path d="M52-115c0 93 80 130 150 87l7-35h11l-1 55c-23 7-52 12-83 12C60 4 19-37 15-115c-5-113 97-141 201-114l1 51h-12l-5-30c-15-9-39-16-62-16-66 0-86 41-86 109" id="f"/><path d="M55 0v-9l38-5v-207c-22 1-53 0-70 4l-5 37H7v-56h207v56h-12l-5-37-70-3v206l37 5v9H55" id="g"/><path d="M77-14l30 5v9H13v-9l30-5v-208l-30-4v-10h94v10l-30 4v208" id="h"/><path d="M130-224c-62 0-78 43-78 106 0 64 16 108 78 108s78-45 78-108-16-106-78-106zm0 228C53 4 15-39 15-118c-1-80 37-120 115-120s115 42 115 120C245-39 207 4 130 4" id="i"/><path d="M203-222l-32-4v-10h81v10l-31 4V0h-17L59-212v198l32 5v9H10v-9l31-5v-208l-31-4v-10h72L203-61v-161" id="j"/><g id="a"><use transform="matrix(0.05,0,0,0.05,0,0)" xlink:href="#e"/><use transform="matrix(0.05,0,0,0.05,12.950000000000001,0)" xlink:href="#f"/><use transform="matrix(0.05,0,0,0.05,24.950000000000003,0)" xlink:href="#g"/><use transform="matrix(0.05,0,0,0.05,35.900000000000006,0)" xlink:href="#h"/><use transform="matrix(0.05,0,0,0.05,41.85000000000001,0)" xlink:href="#i"/><use transform="matrix(0.05,0,0,0.05,54.80000000000001,0)" xlink:href="#j"/></g><path d="M178-68c0 79-95 82-154 59v-54h12c1 35 22 52 60 52 50 0 69-58 33-82-39-24-105-21-105-85 0-67 86-66 142-53v49h-12l-6-29c-31-27-121-7-89 42 28 43 119 24 119 101" id="k"/><path d="M10-9l31-5v-208l-31-4v-10h177v57h-11l-6-38c-28-4-63-3-95-3v92h63l6-28h11v73h-11l-6-29H75v96l105-3 10-43h12l-3 62H10v-9" id="l"/><g id="b"><use transform="matrix(0.05,0,0,0.05,0,0)" xlink:href="#k"/><use transform="matrix(0.05,0,0,0.05,10,0)" xlink:href="#g"/><use transform="matrix(0.05,0,0,0.05,19.5,0)" xlink:href="#e"/><use transform="matrix(0.05,0,0,0.05,30.450000000000003,0)" xlink:href="#g"/><use transform="matrix(0.05,0,0,0.05,41.400000000000006,0)" xlink:href="#l"/></g><path d="M256-236v10l-26 4L135 5h-9L31-222l-27-4v-10h95v10l-31 4 71 174 71-174-31-4v-10h77" id="m"/><path d="M319-222L242 5h-10l-61-162L108 5h-9L21-222l-21-4v-10h90v10l-34 4 56 166 63-163h8l61 163 54-166-37-4v-10h78v10" id="n"/><g id="c"><use transform="matrix(0.05,0,0,0.05,0,0)" xlink:href="#m"/><use transform="matrix(0.05,0,0,0.05,12.950000000000001,0)" xlink:href="#h"/><use transform="matrix(0.05,0,0,0.05,18.900000000000002,0)" xlink:href="#l"/><use transform="matrix(0.05,0,0,0.05,29.85,0)" xlink:href="#n"/></g><path d="M134-16c44-1 70-21 70-64v-142l-32-4v-10h80v10l-30 4v141c0 57-33 84-91 85-58 0-93-26-93-82v-144l-30-4v-10h94v10l-30 4c7 82-31 209 62 206" id="o"/><g id="d"><use transform="matrix(0.05,0,0,0.05,0,0)" xlink:href="#o"/><use transform="matrix(0.05,0,0,0.05,12.950000000000001,0)" xlink:href="#h"/></g></defs></g></svg>