<svg xmlns="http://www.w3.org/2000/svg" xmlns:lucid="lucid" width="722.65" height="117.42"><g lucid:page-tab-id="jLLwVlCVfH.2"><path d="M20 20h682.65v77.42H20z" fill="#fff" fill-opacity="0"/><path d="M33.4 83.42l11.97-47.97c1.3-5.26 4.47-14.33 12.35-14.33 2.63 0 4.27 1.38 4.27 2.96 0 2.16-1.58 3.87-3.42 3.87-1 0-2.04-.46-2.04-1.57 0-1.7 1.18-2.1 1.18-2.7 0-.33-.26-.52-.72-.52-3.3 0-4.93 4.73-6.64 11.63L38.34 83c-1.32 5.33-4.6 13.28-11.97 13.28-2.62 0-4.27-1.38-4.27-2.96 0-2.17 1.58-3.88 3.42-3.88 1 0 2.04.6 2.04 1.7 0 1.92-1.2 1.85-1.2 2.58 0 .32.28.52.74.52 3.1 0 4.66-4.2 6.3-10.84M92.95 85.72l-.8 1.05c-10.38-5.9-16.03-17.02-16.03-28.2 0-12.15 5.72-21.6 16.23-27.86l.6 1.07C83.8 39.6 81.77 45.7 81.77 58.37c0 12.23 1.98 19.66 11.18 27.35M118.9 46.1l-1.3 9.2h-1.06c-.66-5.46-2.63-7.63-5.85-7.63-2.3 0-3.9 1.3-3.9 3.74 0 1.8 1 3.7 3.56 6.72 3.3 3.8 4.47 6.37 4.47 8.94 0 5.45-4 8.8-9.46 8.8-1.12 0-2.1-.06-3.62-.66-1.25-.52-2.17-.6-2.9-.6-.7 0-1.44.34-1.9 1.4H95.9l1.32-10.46h1.05c.92 6.25 3.15 8.94 6.57 8.94 3.1 0 5-1.84 5-5.06 0-2.1-1.12-4.34-3.68-7.56-2.83-3.55-4.14-6.5-4.14-8.6 0-4.34 3.08-7.1 7.95-7.1 1.1 0 2.03.2 3.68.65 1.25.4 1.84.47 2.36.47 1 0 1.46-.26 1.98-1.18h.92M139.93 47l-.32 2.1h-5.52l-5.7 21.57c-.08.26-.14.72-.14.92 0 .84.4 1.04.98 1.04 1.05 0 2.1-1.05 5.32-5.2l.86.47c-3.94 6.06-5.98 7.96-9.4 7.96-1.77 0-3.02-.8-3.02-2.43 0-.72.52-2.76 1.05-4.86l5.13-19.46h-4.93c-.07-.18-.07-.38-.07-.38 0-.72.6-1.3 2.17-1.64 2.1-.46 6.37-3.68 8.74-7.23.26-.4.66-.6.92-.6.4 0 .58.2.58.53 0 0 0 .33-.06.46L134.68 47h5.25M170.36 67.84l.86.73c-4.93 5.98-6.5 7.23-9.14 7.23-1.84 0-2.63-.8-2.63-2.7 0-1.64.13-2.17 1.5-7.56-4.92 7.43-8.73 10.32-13.33 10.32-3.68 0-6.57-2.63-6.57-7.62 0-10.2 10.06-22.08 18.8-22.08 2.82 0 4.73 1.38 5.25 3.8l.73-3.15.2-.18 4-.46.46.2c-.14.6-.2.72-.4 1.37-3.1 11.24-5.85 22.55-5.85 23.86 0 .45.4.84.92.84.6 0 1.44-.52 3.42-2.7m-4.68-18.33c0-2.3-1.38-3.8-3.68-3.8-2.96 0-5.85 2.04-8.6 6.05-2.77 4.14-5.07 10-5.07 14.13 0 3.6 1.58 4.86 3.94 4.86 3.3 0 6.4-3.6 8.36-6.44 3.1-4.47 5.06-10.12 5.06-14.8M192.38 47l-.33 2.1h-5.52l-5.72 21.57c-.06.26-.12.72-.12.92 0 .84.4 1.04.98 1.04 1.06 0 2.1-1.05 5.33-5.2l.84.47c-3.94 6.06-5.98 7.96-9.4 7.96-1.77 0-3.02-.8-3.02-2.43 0-.72.53-2.76 1.05-4.86l5.13-19.46h-4.93c-.07-.18-.07-.38-.07-.38 0-.72.6-1.3 2.17-1.64 2.1-.46 6.38-3.68 8.74-7.23.28-.4.67-.6.93-.6.4 0 .6.2.6.53 0 0 0 .33-.07.46L187.12 47h5.26M215.9 67.98l.8.78c-3.75 4.6-7.96 7.1-13.4 7.1-5.34 0-8.9-3.55-8.9-9 0-10.2 9.8-20.7 19.66-20.7 3.5 0 5.4 1.7 5.4 4.47 0 5.65-6.9 10.77-18.67 12.28-.67 1.33-.67 3.04-.67 4.02 0 3.62 2.43 5.98 6.1 5.98 2.9 0 4.94-1.05 9.67-4.92m-13.53-9.4l-1.12 2.9c5.65-1.4 8.15-2.57 10.58-4.87 2.04-1.97 3.28-4.33 3.28-6.37 0-1.58-.45-2.56-2.3-2.56-3.73 0-8.2 5.06-10.43 10.9M223.53 31.77l.78-1.06c10.07 6.06 16.05 17.03 16.05 28.2 0 12.16-5.78 21.5-16.23 27.87l-.6-1.05c9.34-7.7 11.18-13.87 11.18-26.62 0-12.3-1.64-19.84-11.17-27.33M303.64 54.1h-38.7v-4.33h38.7v4.34m0 13.15h-38.7V62.9h38.7v4.35M355.35 67.32l.92.6c-4.27 6.5-5.98 7.8-9.06 7.8-1.97 0-3.15-1.1-3.15-3.14 0-1.45.86-5.85 2.96-12.95-7.75 12.75-11.03 16.23-15.7 16.23-2.3 0-3.48-1.05-3.48-3.48 0-1.25.6-3.62 1.77-8.4l2.3-9.15c.52-2.17.9-3.88.9-4.4 0-.46-.3-1-.7-1.18-.6-.33-.8-.4-3.3-.4v-.92c3.75-.46 6.12-.92 9.86-1.77l.27.2-5.85 23.32c-.07.2-.2.8-.2 1.06 0 .98.33 1.64 1.3 1.64 2.25 0 5.27-3.48 9.35-9.66 3.08-4.67 4-7.17 7.22-15.97h4.87l-5.2 19.65c-.32 1.25-1.24 4.34-1.24 5.12 0 .73.26 1.12.72 1.12 1.05 0 2.1-.92 5.45-5.32M382.04 46.1l-1.32 9.2h-1.05c-.66-5.46-2.63-7.63-5.85-7.63-2.3 0-3.88 1.3-3.88 3.74 0 1.8 1 3.7 3.55 6.72 3.28 3.8 4.46 6.37 4.46 8.94 0 5.45-4 8.8-9.46 8.8-1.12 0-2.1-.06-3.62-.66-1.25-.52-2.17-.6-2.9-.6-.7 0-1.43.34-1.9 1.4h-1.05l1.32-10.46h1.05c.92 6.25 3.16 8.94 6.57 8.94 3.1 0 5-1.84 5-5.06 0-2.1-1.12-4.34-3.68-7.56-2.84-3.55-4.15-6.5-4.15-8.6 0-4.34 3.1-7.1 7.95-7.1 1.12 0 2.04.2 3.68.65 1.25.4 1.84.47 2.36.47 1 0 1.45-.26 1.98-1.18h.92M407.07 67.98l.8.78c-3.75 4.6-7.96 7.1-13.4 7.1-5.34 0-8.9-3.55-8.9-9 0-10.2 9.8-20.7 19.66-20.7 3.5 0 5.4 1.7 5.4 4.47 0 5.65-6.9 10.77-18.67 12.28-.66 1.33-.66 3.04-.66 4.02 0 3.62 2.43 5.98 6.1 5.98 2.9 0 4.94-1.05 9.67-4.92m-13.53-9.4l-1.12 2.9c5.65-1.4 8.15-2.57 10.58-4.87 2.04-1.97 3.3-4.33 3.3-6.37 0-1.58-.47-2.56-2.3-2.56-3.76 0-8.23 5.06-10.46 10.9M424.36 60.48l1.05-2.3c1.26-2.76 3.5-6.24 6.2-9.07 1.7-1.76 3.67-2.94 5.18-2.94 1.84 0 3.1 1.38 3.1 3.35 0 1.98-1.13 3.56-3.1 3.56-1.18 0-1.7-.73-2.3-1.7-.4-.67-.6-.93-1.05-.93-1.2 0-3.03 2.17-5.4 6.18-2.82 4.87-4 7.5-7.3 18.54h-4.98l5.32-19.2c.92-3.4 1.05-4 1.05-5.38s-1.18-1.7-2.5-1.7c-.52 0-1.05.06-2.03.2v-1.13l10.17-1.77.2.13M473.7 35.77c0 1.84-1.5 3.36-3.2 3.36-1.9 0-3.16-1.38-3.16-3.5 0-2.02 1.3-3.47 3.1-3.47 1.76 0 3.27 1.7 3.27 3.6m-2.75 31.9l.86.7c-3.6 5.53-5.7 7.5-9 7.5-2.17 0-3.22-1.18-3.22-3.6 0-1.33.46-3.63 1.45-7.3l3.15-11.64c.33-1.18.6-2.37.6-2.9 0-1.3-.66-1.5-4.2-1.57V47.8c2.55-.2 3.87-.4 10.5-1.64l.27.2-6.18 22.54c-.33 1.1-.66 1.97-.66 2.9 0 .64.4.97.93.97 1.12 0 2.7-1.38 5.52-5.12M504.86 67.45l.92.85c-4.47 6.12-6.1 7.43-9.2 7.43-1.64 0-3.1-1.05-3.1-3.55 0-.66.14-1.5 1.06-4.93l2.9-10.64c.52-2.03.92-4.4.92-5.2 0-1.17-.6-1.9-1.58-1.9-2.63 0-5.6 3.23-9.73 9.34-2.96 4.4-3.48 5.92-6.57 16.3h-4.93l6.3-23c.08-.33.14-.73.14-1.12 0-1.3-.93-1.7-4.28-1.77V48.2c5.32-1.06 7.16-1.32 10.65-2.04l.26.13-4.4 14.3c6.57-10.5 10.97-14.44 15.18-14.44 2.83 0 4.28 1.64 4.28 4 0 1.2-.26 2.57-.66 3.95l-3.68 13.35c-.66 2.37-.92 3.48-.92 4 0 .6.26 1.2 1.05 1.2.92 0 2.1-1.06 4-3.5.47-.52.93-1.1 1.4-1.7M527 47l-.32 2.1h-5.52l-5.72 21.57c-.06.26-.13.72-.13.92 0 .84.4 1.04 1 1.04 1.05 0 2.1-1.05 5.32-5.2l.85.47c-3.94 6.06-5.98 7.96-9.4 7.96-1.77 0-3.02-.8-3.02-2.43 0-.72.53-2.76 1.05-4.86l5.13-19.46h-4.93c-.06-.18-.06-.38-.06-.38 0-.72.6-1.3 2.16-1.64 2.1-.46 6.38-3.68 8.74-7.23.27-.4.66-.6.92-.6.4 0 .6.2.6.53 0 0 0 .33-.07.46L521.74 47H527M550.53 67.98l.8.78c-3.75 4.6-7.96 7.1-13.4 7.1-5.34 0-8.88-3.55-8.88-9 0-10.2 9.8-20.7 19.64-20.7 3.48 0 5.38 1.7 5.38 4.47 0 5.65-6.9 10.77-18.66 12.28-.66 1.33-.66 3.04-.66 4.02 0 3.62 2.43 5.98 6.1 5.98 2.9 0 4.94-1.05 9.67-4.92M537 58.58l-1.12 2.9c5.65-1.4 8.15-2.57 10.58-4.87 2.04-1.97 3.3-4.33 3.3-6.37 0-1.58-.47-2.56-2.3-2.56-3.76 0-8.23 5.06-10.46 10.9M567.82 60.48l1.05-2.3c1.25-2.76 3.48-6.24 6.18-9.07 1.7-1.76 3.68-2.94 5.2-2.94 1.83 0 3.08 1.38 3.08 3.35 0 1.98-1.12 3.56-3.1 3.56-1.17 0-1.7-.73-2.3-1.7-.4-.67-.58-.93-1.04-.93-1.2 0-3.04 2.17-5.4 6.18-2.83 4.87-4 7.5-7.3 18.54h-5l5.33-19.2c.92-3.4 1.05-4 1.05-5.38s-1.18-1.7-2.5-1.7c-.52 0-1.04.06-2.03.2v-1.13l10.2-1.77.18.13M586.02 47h6.1c1.46-4.65 2.58-8.27 4.75-11.36 1.97-2.82 4.66-5.06 8.67-5.06 3.22 0 5.65 1.7 5.65 4.08 0 1.44-1.26 2.82-2.77 2.82-1.18 0-2.43-.98-2.43-2.56 0-1.12.66-1.45.66-2.04 0-.52-.53-.85-1.45-.85-3.67 0-6.1 4.6-8 14.98h7.03l-.4 2.1h-7.1L592 70.15c-2.76 12.16-7.16 18.6-13.14 18.6-2.96 0-5.2-1.7-5.2-4 0-1.52 1.12-2.77 2.5-2.77 1.52 0 2.5 1.05 2.5 2.43 0 .86-.6 1.2-.6 1.9 0 .6.54 1.06 1.32 1.06 2.76 0 4.87-3.55 6.38-10.64l5.78-27.6h-5.98M641.68 67.84l.86.73c-4.93 5.98-6.5 7.23-9.14 7.23-1.84 0-2.62-.8-2.62-2.7 0-1.64.13-2.17 1.5-7.56-4.92 7.43-8.73 10.32-13.33 10.32-3.68 0-6.58-2.63-6.58-7.62 0-10.2 10.06-22.08 18.8-22.08 2.83 0 4.73 1.38 5.26 3.8l.72-3.15.2-.18 4-.46.47.2c-.14.6-.2.72-.4 1.37-3.1 11.24-5.85 22.55-5.85 23.86 0 .45.4.84.92.84.58 0 1.44-.52 3.4-2.7m-4.66-18.33c0-2.3-1.38-3.8-3.68-3.8-2.95 0-5.85 2.04-8.6 6.05-2.77 4.14-5.07 10-5.07 14.13 0 3.6 1.57 4.86 3.94 4.86 3.28 0 6.37-3.6 8.34-6.44 3.1-4.47 5.06-10.12 5.06-14.8M667.18 68.1l1.05.66c-4 5.06-7.5 7.1-12.42 7.1-6.1 0-9.65-3.42-9.65-10.12 0-6.1 3.42-11.83 8.1-15.57 3.2-2.57 6.95-4 10.96-4 4.02 0 6.9 2.22 6.9 5.3 0 1.78-1.43 3.16-3.14 3.16-1.84 0-2.57-1.3-2.57-2.62 0-1.18.98-1.9.98-3.15 0-.8-.92-1.3-2.43-1.3-2.63 0-5.26 1.17-7.17 3.14-3.68 3.87-5.98 9.45-5.98 15.3 0 4.74 2.1 7.5 5.85 7.5 3.5 0 5.98-1.65 9.53-5.4M696.95 67.98l.8.78c-3.75 4.6-7.96 7.1-13.42 7.1-5.32 0-8.87-3.55-8.87-9 0-10.2 9.8-20.7 19.65-20.7 3.5 0 5.4 1.7 5.4 4.47 0 5.65-6.9 10.77-18.66 12.28-.66 1.33-.66 3.04-.66 4.02 0 3.62 2.43 5.98 6.1 5.98 2.9 0 4.94-1.05 9.67-4.92m-13.54-9.4l-1.1 2.9c5.65-1.4 8.15-2.57 10.58-4.87 2.04-1.97 3.28-4.33 3.28-6.37 0-1.58-.46-2.56-2.3-2.56-3.74 0-8.2 5.06-10.45 10.9"/></g></svg>