<svg xmlns="http://www.w3.org/2000/svg" xmlns:xlink="http://www.w3.org/1999/xlink" xmlns:lucid="lucid" width="593" height="511"><g transform="translate(-247 -40)" lucid:page-tab-id="cQLwc7YIOr26"><path d="M320 479V98.5M320 478.97V480" stroke="#000" stroke-width="2" fill="none"/><path d="M320 83.24l4.64 14.26h-9.28z" stroke="#000" stroke-width="2"/><path d="M321 480h460.5M321.02 480H320" stroke="#000" stroke-width="2" fill="none"/><path d="M796.76 480l-14.26 4.64v-9.28z" stroke="#000" stroke-width="2"/><path d="M240 160h60v60h-60z" stroke="#000" stroke-opacity="0" stroke-width="2" fill="#fff" fill-opacity="0"/><use xlink:href="#a" transform="matrix(1,0,0,1,245,165) translate(15.549999999999999 30.025)"/><path d="M640 500h60v60h-60z" stroke="#000" stroke-opacity="0" stroke-width="2" fill="#fff" fill-opacity="0"/><use xlink:href="#b" transform="matrix(1,0,0,1,645,505) translate(7.050000000000001 30.025)"/><path d="M321 479.98h.16l2.06-.14 3.92-.42 7.9-1.2 15.26-2.93 24.84-5.88 32.44-9.08 35.82-11.65 35.8-13.32 33.92-14.25 31.2-14.67 28.27-14.78L598 377l22.8-14.44 20.38-14.16 18.26-13.85 16.36-13.53 14.7-13.22 13.2-12.93 11.9-12.66 10.7-12.4 9.7-12.22 8.73-12.02 7.9-11.88 7.1-11.75 6.42-11.67 5.77-11.6 5.15-11.6 4.6-11.58 4.04-11.63 3.55-11.7 3.03-11.82 2.54-11.97 2.06-12.15 1.56-12.37.45-5.36M321.03 479.98L320 480" stroke="#c92d39" stroke-width="2" fill="none"/><path d="M799.8 83.23l3.78 14.52-9.26-.56z" stroke="#c92d39" stroke-width="2" fill="#c92d39"/><defs><path d="M134-16c44-1 70-21 70-64v-142l-32-4v-10h80v10l-30 4v141c0 57-33 84-91 85-58 0-93-26-93-82v-144l-30-4v-10h94v10l-30 4c7 82-31 209 62 206" id="c"/><path d="M77-14l30 5v9H13v-9l30-5v-208l-30-4v-10h94v10l-30 4v208" id="d"/><g id="a"><use transform="matrix(0.05,0,0,0.05,0,0)" xlink:href="#c"/><use transform="matrix(0.05,0,0,0.05,12.950000000000001,0)" xlink:href="#d"/></g><path d="M178-68c0 79-95 82-154 59v-54h12c1 35 22 52 60 52 50 0 69-58 33-82-39-24-105-21-105-85 0-67 86-66 142-53v49h-12l-6-29c-31-27-121-7-89 42 28 43 119 24 119 101" id="e"/><path d="M54-38c-1 25 24 26 44 20v12C71 10 25 9 25-35v-115H4c-2-14 14-10 21-15l18-38h11v38h38v15H54v112" id="f"/><path d="M32-163c41-10 102-14 102 39v112c8 3 24-2 21 12h-45l-4-17C83 13 3 13 13-46c-2-50 45-50 92-51 4-36-5-70-42-56-6 2-12 4-16 6-4 7 0 23-15 20v-36zM42-47c0 41 41 33 63 22v-59c-34 1-63-1-63 37" id="g"/><path d="M84-170c49 0 66 33 63 87H46c-8 60 38 80 95 63v10C128-2 108 4 88 4 34 4 14-29 14-84c-1-54 22-86 70-86zm33 73c12-57-57-82-69-24-1 7-2 15-2 24h71" id="h"/><g id="b"><use transform="matrix(0.05,0,0,0.05,0,0)" xlink:href="#e"/><use transform="matrix(0.05,0,0,0.05,10,0)" xlink:href="#f"/><use transform="matrix(0.05,0,0,0.05,15,0)" xlink:href="#g"/><use transform="matrix(0.05,0,0,0.05,22.95,0)" xlink:href="#f"/><use transform="matrix(0.05,0,0,0.05,27.950000000000003,0)" xlink:href="#h"/></g></defs></g></svg>