<svg xmlns="http://www.w3.org/2000/svg" xmlns:xlink="http://www.w3.org/1999/xlink" xmlns:lucid="lucid" width="600" height="200"><g transform="translate(-300 -60)" lucid:page-tab-id="YcMwzMEY42wa"><path d="M320 160h560v80H320z" stroke="#000" stroke-width="2" fill="#fff"/><path d="M340 170h4v60h-4z" stroke="#000" stroke-opacity="0" stroke-width="2"/><path d="M320 80h560v60H320z" stroke="#000" stroke-opacity="0" stroke-width="2" fill="#fff" fill-opacity="0"/><use xlink:href="#a" transform="matrix(1,0,0,1,325,85) translate(0 32)"/><use xlink:href="#b" transform="matrix(1,0,0,1,325,85) translate(74.77777777777777 32)"/><use xlink:href="#c" transform="matrix(1,0,0,1,325,85) translate(160.1111111111111 32)"/><use xlink:href="#d" transform="matrix(1,0,0,1,325,85) translate(258.88888888888886 32)"/><use xlink:href="#e" transform="matrix(1,0,0,1,325,85) translate(288.88888888888886 32)"/><defs><path d="M147-93v79l38 5v9H76v-9l37-5v-78L31-222l-27-4v-10h100v10l-32 4 68 109 64-109-30-4v-10h77v10l-26 4" id="f"/><path d="M90-170c52 0 76 32 76 87 0 54-24 87-77 87-51 0-75-34-75-87 0-54 24-87 76-87zM89-10c39 0 46-35 46-73 0-39-7-73-46-73-39 1-44 34-44 73s6 72 44 73" id="g"/><path d="M124-13C89 8 26 15 26-45v-108c-8-3-24 2-21-12h50v118c-3 37 42 32 69 25v-131l-25-4v-8h54v153c8 3 24-2 21 12h-48" id="h"/><g id="a"><use transform="matrix(0.1111111111111111,0,0,0.1111111111111111,0,0)" xlink:href="#f"/><use transform="matrix(0.1111111111111111,0,0,0.1111111111111111,24.777777777777775,0)" xlink:href="#g"/><use transform="matrix(0.1111111111111111,0,0,0.1111111111111111,44.77777777777777,0)" xlink:href="#h"/></g><path d="M126-119c3-38-42-31-69-25v132l23 4v8H7v-8l21-4v-226l-24-4v-8h53l-1 98c31-22 99-31 99 31v109c7 3 23-1 20 12h-71v-8l22-4v-107" id="i"/><path d="M32-163c41-10 102-14 102 39v112c8 3 24-2 21 12h-45l-4-17C83 13 3 13 13-46c-2-50 45-50 92-51 4-36-5-70-42-56-6 2-12 4-16 6-4 7 0 23-15 20v-36zM42-47c0 41 41 33 63 22v-59c-34 1-63-1-63 37" id="j"/><path d="M164-154L98 4H85L17-153c-7-3-20 0-17-12h77v8l-26 4L99-38l46-115-26-4v-8h61v8" id="k"/><path d="M84-170c49 0 66 33 63 87H46c-8 60 38 80 95 63v10C128-2 108 4 88 4 34 4 14-29 14-84c-1-54 22-86 70-86zm33 73c12-57-57-82-69-24-1 7-2 15-2 24h71" id="l"/><g id="b"><use transform="matrix(0.1111111111111111,0,0,0.1111111111111111,0,0)" xlink:href="#i"/><use transform="matrix(0.1111111111111111,0,0,0.1111111111111111,20,0)" xlink:href="#j"/><use transform="matrix(0.1111111111111111,0,0,0.1111111111111111,37.666666666666664,0)" xlink:href="#k"/><use transform="matrix(0.1111111111111111,0,0,0.1111111111111111,57.666666666666664,0)" xlink:href="#l"/></g><path d="M54-38c-1 25 24 26 44 20v12C71 10 25 9 25-35v-115H4c-2-14 14-10 21-15l18-38h11v38h38v15H54v112" id="m"/><path d="M161-154L85 37C75 66 49 86 8 75V39c18-2 6 24 29 21 30-4 38-32 47-58L21-153c-7-3-20 0-17-12h77v8l-26 4 45 116 43-116-26-4v-8h62v8" id="n"/><path d="M166-85c3 67-44 102-111 85l1 64 29 4v9H6v-9l21-4v-217c-7-3-22 1-19-12h46l1 9c11-8 26-14 45-14 47 2 64 36 66 85zM56-13c53 14 83-14 78-72 7-53-33-79-78-60v132" id="o"/><path d="M13-81c0-71 46-101 114-85l-1-72-28-4v-8h57v238c8 3 24-2 21 12h-47l-2-12C80 23 13-1 13-81zm77-74c-37 1-44 33-45 74 0 38 9 66 45 66 14 0 27-3 36-7v-130c-10-1-24-3-36-3" id="p"/><g id="c"><use transform="matrix(0.1111111111111111,0,0,0.1111111111111111,0,0)" xlink:href="#m"/><use transform="matrix(0.1111111111111111,0,0,0.1111111111111111,11.11111111111111,0)" xlink:href="#n"/><use transform="matrix(0.1111111111111111,0,0,0.1111111111111111,31.11111111111111,0)" xlink:href="#o"/><use transform="matrix(0.1111111111111111,0,0,0.1111111111111111,51.111111111111114,0)" xlink:href="#l"/><use transform="matrix(0.1111111111111111,0,0,0.1111111111111111,68.77777777777777,0)" xlink:href="#p"/></g><path d="M90-239c59 0 76 52 76 120S152 4 89 4C31 4 14-51 14-119c0-67 17-120 76-120zM89-10c45-6 45-58 45-109 0-50 0-101-45-106-45 4-43 57-43 106 0 50-2 104 43 109" id="q"/><use transform="matrix(0.1111111111111111,0,0,0.1111111111111111,0,0)" xlink:href="#q" id="d"/><path d="M45-84c0 64 52 80 104 63 1 25-30 25-55 25-56 0-80-32-80-88 0-76 62-98 131-80v46h-10c-5-15-4-31-23-35-47-10-67 21-67 69" id="r"/><path d="M57-145c16-10 35-24 60-25v45c-19 1-8-30-40-17l-20 6v124l29 4v8H7v-8l21-4v-141c-8-3-24 2-21-12h48" id="s"/><path d="M41-130c7 48 86 23 86 84 0 56-69 57-112 41v-40c20 0 9 29 31 31 35 19 77-26 41-50-27-18-72-13-72-59 0-50 58-52 100-41v36c-19 1-8-25-28-25-21-7-50-1-46 23" id="t"/><g id="e"><use transform="matrix(0.1111111111111111,0,0,0.1111111111111111,0,0)" xlink:href="#r"/><use transform="matrix(0.1111111111111111,0,0,0.1111111111111111,17.666666666666664,0)" xlink:href="#i"/><use transform="matrix(0.1111111111111111,0,0,0.1111111111111111,37.666666666666664,0)" xlink:href="#j"/><use transform="matrix(0.1111111111111111,0,0,0.1111111111111111,55.33333333333333,0)" xlink:href="#s"/><use transform="matrix(0.1111111111111111,0,0,0.1111111111111111,68.55555555555554,0)" xlink:href="#j"/><use transform="matrix(0.1111111111111111,0,0,0.1111111111111111,86.2222222222222,0)" xlink:href="#r"/><use transform="matrix(0.1111111111111111,0,0,0.1111111111111111,103.88888888888886,0)" xlink:href="#m"/><use transform="matrix(0.1111111111111111,0,0,0.1111111111111111,114.99999999999997,0)" xlink:href="#l"/><use transform="matrix(0.1111111111111111,0,0,0.1111111111111111,132.66666666666663,0)" xlink:href="#s"/><use transform="matrix(0.1111111111111111,0,0,0.1111111111111111,145.88888888888886,0)" xlink:href="#t"/></g></defs></g></svg>