<svg xmlns="http://www.w3.org/2000/svg" xmlns:xlink="http://www.w3.org/1999/xlink" xmlns:lucid="lucid" width="920" height="200"><g transform="translate(-140 -220)" lucid:page-tab-id="8KMwTspq8Dmo"><path d="M160 240h160v160H160z" stroke="#000" stroke-width="2" fill="#fff"/><use xlink:href="#a" transform="matrix(1,0,0,1,165,245) translate(30.324999999999996 65.9625)"/><use xlink:href="#b" transform="matrix(1,0,0,1,165,245) translate(71.775 65.9625)"/><use xlink:href="#c" transform="matrix(1,0,0,1,165,245) translate(50.6 87.5625)"/><path d="M400 240h160v160H400z" stroke="#000" stroke-width="2" fill="#fff"/><use xlink:href="#d" transform="matrix(1,0,0,1,405,245) translate(22.174999999999997 65.9625)"/><use xlink:href="#e" transform="matrix(1,0,0,1,405,245) translate(76.425 65.9625)"/><use xlink:href="#f" transform="matrix(1,0,0,1,405,245) translate(122.825 65.9625)"/><use xlink:href="#g" transform="matrix(1,0,0,1,405,245) translate(17.124999999999993 87.5625)"/><use xlink:href="#h" transform="matrix(1,0,0,1,405,245) translate(86.42500000000001 87.5625)"/><path d="M640 240h160v160H640z" stroke="#000" stroke-width="2" fill="#fff"/><use xlink:href="#i" transform="matrix(1,0,0,1,645,245) translate(48.75 65.9625)"/><use xlink:href="#j" transform="matrix(1,0,0,1,645,245) translate(37.55 87.5625)"/><path d="M880 240h160v160H880z" stroke="#000" stroke-width="2" fill="#fff"/><use xlink:href="#k" transform="matrix(1,0,0,1,885,245) translate(49.3 65.9625)"/><use xlink:href="#f" transform="matrix(1,0,0,1,885,245) translate(95.7 65.9625)"/><use xlink:href="#l" transform="matrix(1,0,0,1,885,245) translate(20.39999999999999 87.5625)"/><use xlink:href="#m" transform="matrix(1,0,0,1,885,245) translate(73.69999999999999 87.5625)"/><path d="M322 320h58.5" stroke="#000" stroke-width="2" fill="none"/><path d="M322.03 321H321v-2h1.03z"/><path d="M395.76 320l-14.26 4.64v-9.28z" stroke="#000" stroke-width="2"/><path d="M562 320h58.5" stroke="#000" stroke-width="2" fill="none"/><path d="M562.03 321H561v-2h1.03z"/><path d="M635.76 320l-14.26 4.64v-9.28z" stroke="#000" stroke-width="2"/><path d="M802 320h58.5" stroke="#000" stroke-width="2" fill="none"/><path d="M802.03 321H801v-2h1.03z"/><path d="M875.76 320l-14.26 4.64v-9.28z" stroke="#000" stroke-width="2"/><defs><path d="M75-108c48 3 76-12 76-58s-28-57-76-54v112zm111-58c-1 60-46 78-111 74v78l37 5v9H13v-9l28-5v-208l-31-4v-10c81 1 178-14 176 70" id="n"/><path d="M32-163c41-10 102-14 102 39v112c8 3 24-2 21 12h-45l-4-17C83 13 3 13 13-46c-2-50 45-50 92-51 4-36-5-70-42-56-6 2-12 4-16 6-4 7 0 23-15 20v-36zM42-47c0 41 41 33 63 22v-59c-34 1-63-1-63 37" id="o"/><path d="M47-200c-23 0-25-39 0-38 13 0 18 7 20 19-1 11-8 19-20 19zM65-12l28 4v8H8v-8l28-4v-141l-24-4v-8h53v153" id="p"/><path d="M125-118c4-37-41-34-68-26v132l23 4v8H8C5-13 21-9 28-12v-141c-7-3-23 1-20-12h47l2 13c31-23 98-29 98 31v109c7 3 23-1 20 12h-72v-8l22-4v-106" id="q"/><path d="M54-38c-1 25 24 26 44 20v12C71 10 25 9 25-35v-115H4c-2-14 14-10 21-15l18-38h11v38h38v15H54v112" id="r"/><g id="a"><use transform="matrix(0.05,0,0,0.05,0,0)" xlink:href="#n"/><use transform="matrix(0.05,0,0,0.05,10,0)" xlink:href="#o"/><use transform="matrix(0.05,0,0,0.05,17.95,0)" xlink:href="#p"/><use transform="matrix(0.05,0,0,0.05,22.95,0)" xlink:href="#q"/><use transform="matrix(0.05,0,0,0.05,31.950000000000003,0)" xlink:href="#r"/></g><path d="M319-222L242 5h-10l-61-162L108 5h-9L21-222l-21-4v-10h90v10l-34 4 56 166 63-163h8l61 163 54-166-37-4v-10h78v10" id="s"/><path d="M126-119c3-38-42-31-69-25v132l23 4v8H7v-8l21-4v-226l-24-4v-8h53l-1 98c31-22 99-31 99 31v109c7 3 23-1 20 12h-71v-8l22-4v-107" id="t"/><path d="M90-170c52 0 76 32 76 87 0 54-24 87-77 87-51 0-75-34-75-87 0-54 24-87 76-87zM89-10c39 0 46-35 46-73 0-39-7-73-46-73-39 1-44 34-44 73s6 72 44 73" id="u"/><path d="M65-12l28 4v8H7v-8l28-4v-226l-28-4v-8h58v238" id="v"/><path d="M84-170c49 0 66 33 63 87H46c-8 60 38 80 95 63v10C128-2 108 4 88 4 34 4 14-29 14-84c-1-54 22-86 70-86zm33 73c12-57-57-82-69-24-1 7-2 15-2 24h71" id="w"/><g id="b"><use transform="matrix(0.05,0,0,0.05,0,0)" xlink:href="#s"/><use transform="matrix(0.05,0,0,0.05,16.95,0)" xlink:href="#t"/><use transform="matrix(0.05,0,0,0.05,25.950000000000003,0)" xlink:href="#u"/><use transform="matrix(0.05,0,0,0.05,34.95,0)" xlink:href="#v"/><use transform="matrix(0.05,0,0,0.05,39.95,0)" xlink:href="#w"/></g><path d="M178-68c0 79-95 82-154 59v-54h12c1 35 22 52 60 52 50 0 69-58 33-82-39-24-105-21-105-85 0-67 86-66 142-53v49h-12l-6-29c-31-27-121-7-89 42 28 43 119 24 119 101" id="x"/><path d="M45-84c0 64 52 80 104 63 1 25-30 25-55 25-56 0-80-32-80-88 0-76 62-98 131-80v46h-10c-5-15-4-31-23-35-47-10-67 21-67 69" id="y"/><path d="M57-145c16-10 35-24 60-25v45c-19 1-8-30-40-17l-20 6v124l29 4v8H7v-8l21-4v-141c-8-3-24 2-21-12h48" id="z"/><g id="c"><use transform="matrix(0.05,0,0,0.05,0,0)" xlink:href="#x"/><use transform="matrix(0.05,0,0,0.05,10,0)" xlink:href="#y"/><use transform="matrix(0.05,0,0,0.05,17.95,0)" xlink:href="#z"/><use transform="matrix(0.05,0,0,0.05,23.9,0)" xlink:href="#w"/><use transform="matrix(0.05,0,0,0.05,31.849999999999994,0)" xlink:href="#w"/><use transform="matrix(0.05,0,0,0.05,39.8,0)" xlink:href="#q"/></g><path d="M256-236v10l-26 4L135 5h-9L31-222l-27-4v-10h95v10l-31 4 71 174 71-174-31-4v-10h77" id="A"/><path d="M124-13C89 8 26 15 26-45v-108c-8-3-24 2-21-12h50v118c-3 37 42 32 69 25v-131l-25-4v-8h54v153c8 3 24-2 21 12h-48" id="B"/><g id="d"><use transform="matrix(0.05,0,0,0.05,0,0)" xlink:href="#A"/><use transform="matrix(0.05,0,0,0.05,11.850000000000001,0)" xlink:href="#p"/><use transform="matrix(0.05,0,0,0.05,16.85,0)" xlink:href="#z"/><use transform="matrix(0.05,0,0,0.05,22.8,0)" xlink:href="#r"/><use transform="matrix(0.05,0,0,0.05,27.8,0)" xlink:href="#B"/><use transform="matrix(0.05,0,0,0.05,36.8,0)" xlink:href="#o"/><use transform="matrix(0.05,0,0,0.05,44.75,0)" xlink:href="#v"/></g><path d="M75-17c87 13 134-18 134-103 0-78-51-106-134-100v203zm171-102C246 5 139 7 10 0v-9l31-5v-208l-31-4v-10h107c82 0 129 35 129 117" id="C"/><path d="M130-224c-62 0-78 43-78 106 0 64 16 108 78 108s78-45 78-108-16-106-78-106zm0 228C53 4 15-39 15-118c-1-80 37-120 115-120s115 42 115 120C245-39 207 4 130 4" id="D"/><path d="M152 0h-7L59-203v189l32 5v9H10v-9l31-5v-208l-31-4v-10h72l76 180 84-180h68v10l-31 4v208l31 5v9h-96v-9l32-5v-189" id="E"/><g id="e"><use transform="matrix(0.05,0,0,0.05,0,0)" xlink:href="#C"/><use transform="matrix(0.05,0,0,0.05,12.950000000000001,0)" xlink:href="#D"/><use transform="matrix(0.05,0,0,0.05,25.900000000000002,0)" xlink:href="#E"/></g><path d="M18 4H0l83-241h17" id="F"/><use transform="matrix(0.05,0,0,0.05,0,0)" xlink:href="#F" id="f"/><path d="M52-115c0 90 69 126 140 93v-67l-30-5v-9h87v9l-23 5v77c-27 8-56 16-90 16C59 2 15-37 15-115c-1-82 41-123 122-123 31 0 59 4 83 10v51h-12l-5-29c-15-12-38-18-65-18-66-1-86 42-86 109" id="G"/><path d="M166-85c3 67-44 102-111 85l1 64 29 4v9H6v-9l21-4v-217c-7-3-22 1-19-12h46l1 9c11-8 26-14 45-14 47 2 64 36 66 85zM56-13c53 14 83-14 78-72 7-53-33-79-78-60v132" id="H"/><path d="M41-130c7 48 86 23 86 84 0 56-69 57-112 41v-40c20 0 9 29 31 31 35 19 77-26 41-50-27-18-72-13-72-59 0-50 58-52 100-41v36c-19 1-8-25-28-25-21-7-50-1-46 23" id="I"/><g id="g"><use transform="matrix(0.05,0,0,0.05,0,0)" xlink:href="#G"/><use transform="matrix(0.05,0,0,0.05,12.950000000000001,0)" xlink:href="#z"/><use transform="matrix(0.05,0,0,0.05,18.900000000000002,0)" xlink:href="#o"/><use transform="matrix(0.05,0,0,0.05,26.85,0)" xlink:href="#H"/><use transform="matrix(0.05,0,0,0.05,35.85,0)" xlink:href="#t"/><use transform="matrix(0.05,0,0,0.05,44.85,0)" xlink:href="#p"/><use transform="matrix(0.05,0,0,0.05,49.85,0)" xlink:href="#y"/><use transform="matrix(0.05,0,0,0.05,57.800000000000004,0)" xlink:href="#I"/></g><path d="M75-131c50 2 93 3 93-48 0-46-48-41-93-41v89zm0 115c55 4 111 6 111-51 0-53-58-48-111-48v99zm148-52C223 24 102-3 10 0v-9l31-5v-208l-31-4v-10c77 6 193-24 194 56 0 33-20 48-48 54 36 5 67 20 67 58" id="J"/><path d="M103-236c-39-15-35 32-34 71h44v15H69v136l35 6v8H15v-8l25-6v-136H11v-9l29-7c-6-59 23-100 80-84v36c-15 2-12-14-17-22" id="K"/><g id="h"><use transform="matrix(0.05,0,0,0.05,0,0)" xlink:href="#J"/><use transform="matrix(0.05,0,0,0.05,12,0)" xlink:href="#B"/><use transform="matrix(0.05,0,0,0.05,21,0)" xlink:href="#K"/><use transform="matrix(0.05,0,0,0.05,26.599999999999994,0)" xlink:href="#K"/><use transform="matrix(0.05,0,0,0.05,32.55,0)" xlink:href="#w"/><use transform="matrix(0.05,0,0,0.05,40.5,0)" xlink:href="#z"/></g><path d="M141-152c28 39 5 97-54 97-9 0-20-2-27-3L49-35c29 22 130-14 124 52-4 45-38 57-88 61C21 83-8 26 45-2 33-6 22-15 21-31l28-31c-19-9-28-26-28-51-2-51 53-65 100-52l38-20 7 8zM85 64c35 0 61-11 61-42 0-35-57-17-89-21-9 8-16 19-17 34 0 25 19 29 45 29zM52-113c1 26 7 46 35 44 28-1 34-16 35-44 0-26-6-43-34-43s-36 17-36 43" id="L"/><g id="i"><use transform="matrix(0.05,0,0,0.05,0,0)" xlink:href="#C"/><use transform="matrix(0.05,0,0,0.05,12.950000000000001,0)" xlink:href="#p"/><use transform="matrix(0.05,0,0,0.05,17.950000000000003,0)" xlink:href="#K"/><use transform="matrix(0.05,0,0,0.05,23.55,0)" xlink:href="#K"/><use transform="matrix(0.05,0,0,0.05,29.5,0)" xlink:href="#p"/><use transform="matrix(0.05,0,0,0.05,34.5,0)" xlink:href="#q"/><use transform="matrix(0.05,0,0,0.05,43.5,0)" xlink:href="#L"/></g><path d="M81-9v9H4v-9l26-5 81-224h33l83 224 30 5v9h-99v-9l31-5-23-68H73L49-14zm38-203L78-98h82" id="M"/><path d="M126-118c4-37-42-32-68-25v131l24 4v8H8C5-13 21-9 28-12v-141c-7-3-23 1-20-12h48l1 13c22-15 77-30 92 2 32-22 104-36 104 29v109c8 3 24-2 21 12h-75v-8l25-4v-106c3-39-45-31-72-24 7 37 1 88 3 130l25 4v8h-78v-8l24-4v-106" id="N"/><g id="j"><use transform="matrix(0.05,0,0,0.05,0,0)" xlink:href="#M"/><use transform="matrix(0.05,0,0,0.05,12.950000000000001,0)" xlink:href="#v"/><use transform="matrix(0.05,0,0,0.05,17.950000000000003,0)" xlink:href="#L"/><use transform="matrix(0.05,0,0,0.05,26.950000000000003,0)" xlink:href="#u"/><use transform="matrix(0.05,0,0,0.05,35.95,0)" xlink:href="#z"/><use transform="matrix(0.05,0,0,0.05,41.900000000000006,0)" xlink:href="#p"/><use transform="matrix(0.05,0,0,0.05,46.900000000000006,0)" xlink:href="#r"/><use transform="matrix(0.05,0,0,0.05,51.900000000000006,0)" xlink:href="#t"/><use transform="matrix(0.05,0,0,0.05,60.900000000000006,0)" xlink:href="#N"/></g><g id="k"><use transform="matrix(0.05,0,0,0.05,0,0)" xlink:href="#C"/><use transform="matrix(0.05,0,0,0.05,12.950000000000001,0)" xlink:href="#D"/><use transform="matrix(0.05,0,0,0.05,25.900000000000002,0)" xlink:href="#E"/></g><g id="l"><use transform="matrix(0.05,0,0,0.05,0,0)" xlink:href="#G"/><use transform="matrix(0.05,0,0,0.05,12.950000000000001,0)" xlink:href="#z"/><use transform="matrix(0.05,0,0,0.05,18.900000000000002,0)" xlink:href="#o"/><use transform="matrix(0.05,0,0,0.05,26.85,0)" xlink:href="#t"/><use transform="matrix(0.05,0,0,0.05,35.85,0)" xlink:href="#p"/><use transform="matrix(0.05,0,0,0.05,40.85,0)" xlink:href="#y"/></g><path d="M161-154L85 37C75 66 49 86 8 75V39c18-2 6 24 29 21 30-4 38-32 47-58L21-153c-7-3-20 0-17-12h77v8l-26 4 45 116 43-116-26-4v-8h62v8" id="O"/><g id="m"><use transform="matrix(0.05,0,0,0.05,0,0)" xlink:href="#C"/><use transform="matrix(0.05,0,0,0.05,12.950000000000001,0)" xlink:href="#p"/><use transform="matrix(0.05,0,0,0.05,17.950000000000003,0)" xlink:href="#I"/><use transform="matrix(0.05,0,0,0.05,24.950000000000003,0)" xlink:href="#H"/><use transform="matrix(0.05,0,0,0.05,33.95,0)" xlink:href="#v"/><use transform="matrix(0.05,0,0,0.05,38.95,0)" xlink:href="#o"/><use transform="matrix(0.05,0,0,0.05,46.900000000000006,0)" xlink:href="#O"/></g></defs></g></svg>